<?xml version="1.0" encoding="iso-8859-1"?>
<!-- Generator: Adobe Illustrator 19.0.0, SVG Export Plug-In . SVG Version: 6.00 Build 0)  -->
<svg version="1.1" id="Capa_1" xmlns="http://www.w3.org/2000/svg" xmlns:xlink="http://www.w3.org/1999/xlink" x="0px" y="0px"
	 viewBox="0 0 512.219 512.219" style="enable-background:new 0 0 512.219 512.219;" xml:space="preserve">
<g transform="translate(-1)">
	<g>
		<g>
			<path d="M8.972,429.167c-10.606,10.746-10.606,28.02,0,38.766l36.297,36.297c10.727,10.652,28.039,10.652,38.766,0
				l253.714-253.714l-75.063-75.063L8.972,429.167z M144.469,381.624l-22.034,22.034c-1.679,1.724-3.993,2.683-6.4,2.651
				c-2.434,0.033-4.776-0.924-6.491-2.651c-1.712-1.708-2.674-4.027-2.674-6.446s0.962-4.738,2.674-6.446l22.034-22.034
				c3.56-3.56,9.332-3.56,12.891,0C148.029,372.292,148.029,378.064,144.469,381.624z M262.686,292.755l-22.857,22.858v0.091
				l-30.263,30.171c-7.14,7.07-18.643,7.07-25.783,0l-16.457-16.457c-7.07-7.14-7.07-18.643,0-25.783l53.12-53.12
				c3.416-3.424,8.055-5.348,12.891-5.348c4.837,0,9.475,1.924,12.891,5.348l16.457,16.457c3.424,3.416,5.349,8.054,5.349,12.891
				C268.035,284.701,266.11,289.339,262.686,292.755z"/>
			<polygon points="180.309,316.527 196.674,332.984 196.675,332.984 196.675,332.984 220.446,309.213 203.989,292.755 			"/>
			<path d="M512.843,147.015L366.187,0.358c-0.48-0.478-1.256-0.478-1.737,0l-14.795,14.799
				c-5.175,5.176-10.027,10.588-14.642,16.165l146.868,146.864c5.577-4.615,10.988-9.466,16.163-14.641l14.799-14.795
				C513.321,148.271,513.321,147.495,512.843,147.015z"/>
			<path d="M297.08,96.809l-23.787,63.437l79.66,79.664l63.44-23.788c17.993-6.748,35.062-15.74,50.803-26.763L323.841,46.008
				C312.819,61.748,303.827,78.817,297.08,96.809z"/>
			<polygon points="233.338,263.499 233.337,263.498 216.972,279.864 233.337,296.23 249.703,279.864 233.338,263.498 			"/>
		</g>
	</g>
</g>
<g>
</g>
<g>
</g>
<g>
</g>
<g>
</g>
<g>
</g>
<g>
</g>
<g>
</g>
<g>
</g>
<g>
</g>
<g>
</g>
<g>
</g>
<g>
</g>
<g>
</g>
<g>
</g>
<g>
</g>
</svg>
